<?xml version="1.0" encoding="UTF-8" standalone="no"?>
<svg width="400" xmlns="http://www.w3.org/2000/svg" version="1.1" height="200">
 <defs>
  <marker id="arrow" refY="5" refX="1" viewBox="0 0 10 10" orient="auto" markerWidth="6" markerHeight="6">
   <path d="m0 0l10 5-10 5z"/>
  </marker>
 </defs>
 <rect rx="5" ry="5" height="30" width="80" stroke="#000" y="115" x="10" fill="none"></rect>
 <text y="133" x="15" font-size="10" font-family="&apos;Helvetica Neue&apos;, Helvetica, Arial, sans-serif">Manifest found?</text>
 <path stroke="#000" marker-end="url(#arrow)" d="m90 130h25" fill="none"></path>
 <path stroke="#000" d="m120 130l30-25 30 25-30 25z" fill="none"></path>
 <text y="133" x="133" font-size="10" font-family="&apos;Helvetica Neue&apos;, Helvetica, Arial, sans-serif">Known?</text>
 <path stroke="#000" marker-end="url(#arrow)" d="m180 130h35" fill="none"></path>
 <text y="120" x="187" font-size="11" font-family="&apos;Helvetica Neue&apos;, Helvetica, Arial, sans-serif">YES</text>
 <path stroke="#000" d="m220 130l30-25 30 25-30 25z" fill="none"></path>
 <text y="133" x="228" font-size="10" font-family="&apos;Helvetica Neue&apos;, Helvetica, Arial, sans-serif">Changes?</text>
 <path stroke="#000" marker-end="url(#arrow)" d="m280 130h25" fill="none"></path>
 <text y="120" x="283" font-size="11" font-family="&apos;Helvetica Neue&apos;, Helvetica, Arial, sans-serif">NO</text>
 <rect rx="5" ry="5" height="30" width="80" stroke="#000" y="115" x="310" fill="none"></rect>
 <text y="133" x="332" font-size="10" font-family="&apos;Helvetica Neue&apos;, Helvetica, Arial, sans-serif">Render</text>
<!--  -->
 <path stroke="#000" marker-end="url(#arrow)" d="m150 105v-55h55" fill="none"></path>
 <text y="75" x="155" font-size="11" font-family="&apos;Helvetica Neue&apos;, Helvetica, Arial, sans-serif">NO</text>
 <rect rx="5" ry="5" height="30" width="80" stroke="#000" y="35" x="210" fill="none"></rect>
 <path stroke="#000" marker-end="url(#arrow)" d="m250 105v-35" fill="none"></path>
 <text y="53" x="227" font-size="10" font-family="&apos;Helvetica Neue&apos;, Helvetica, Arial, sans-serif">Download</text>
 <path stroke="#000" marker-end="url(#arrow)" d="m290 50h60v60" fill="none"></path>
 <text y="85" x="260" font-size="11" font-family="&apos;Helvetica Neue&apos;, Helvetica, Arial, sans-serif">YES</text>
</svg>
