<?xml version="1.0" encoding="UTF-8" standalone="no"?>
<!DOCTYPE svg  PUBLIC '-//W3C//DTD SVG 20010904//EN'  'http://www.w3.org/TR/2001/REC-SVG-20010904/DTD/svg2.dtd'>
<svg xmlns="http://www.w3.org/2000/svg" height="66" width="66" version="1.0">
 <g transform="translate(0 66) scale(1 -1)">
  <path d="m8 51v-7h7 7v7 7h-7-7v-7zm12 0v-5h-5-5v5 5h5 5v-5z"/>
  <path d="m12 51v-3h3 3v3 3h-3-3v-3z"/>
  <path d="m26 57v-1h-1-1v-1-1h1 1v-1-1h-1-1v-1-1h2 2v-3-3h1 1v3 3h1 1v-1-1h1 1v1 1h3 3v-1-1h-1-1v-1-1h-1-1v-2-2h-8-8v-1-1h1 1v-1-1h-1-1v-1-1h1 1v-1-1h-3-3v-1-1h-1-1v1 1h-1-1v-1-1h-2-2v-4-4h1 1v3 3h2 2v-1-1h1 1v1 1h1 1v-2-2h-1-1v-1-1h4 4v-2-2h1 1v-1-1h-1-1v-5-5h1 1v3 3h1 1v1 1h1 1v-1-1h2 2v-1-1h-2-2v-1-1h2 2v-1-1h2 2v1 1h-2-2v1 1h1 1v1 1h1 1v1 1h2 2v-2-2h-1-1v-1-1h1 1v1 1h1 1v-1-1h1 1v-1-1h6 6v4 4h-1-1v1 1h1 1v2 2h-2-2v2 2h-1-1v3 3h1 1v-2-2h1 1v-1-1h1 1v2 2h-1-1v1 1h1 1v3 3h-1-1v2 2h-1-1v-3-3h1 1v-1-1h-2-2v-1-1h-1-1v2 2h1 1v1 1h-2-2v2 2h-1-1v-2-2h-1-1v2 2h-1-1v5 5h-2-2v1 1h1 1v1 1h1 1v1 1h-1-1v-1-1h-2-2v1 1h-1-1v-1-1h-2-2v-1-1h-1-1v2 2h-1-1v-1zm10-3v-2h-2-2v1 1h1 1v1 1h1 1v-2zm-6-3v-1h-1-1v1 1h1 1v-1zm10-7v-2h1 1v-1-1h-1-1v-1-1h2 2v-1-1h1 1v1 1h1 1v-1-1h-1-1v-1-1h1 1v-1-1h1 1v-2-2h-1-1v-1-1h-1-1v1 1h1 1v2 2h-1-1v-1-1h-1-1v1 1h1 1v1 1h-1-1v1 1h-2-2v1 1h-1-1v4 4h1 1v-2zm-10-5v-1h1 1v1 1h2 2v-2-2h1 1v-1-1h-3-3v1 1h-2-2v2 2h1 1v-1zm-4-4v-1h-1-1v1 1h1 1v-1zm4-2v-1h-1-1v-1-1h2 2v1 1h2 2v-2-2h4 4v-1-1h-5-5v1 1h-2-2v-1-1h1 1v-1-1h3 3v-1-1h1 1v-2-2h-1-1v2 2h-1-1v-2-2h-2-2v1 1h-1-1v1 1h1 1v1 1h-1-1v1 1h-1-1v-2-2h-1-1v1 1h-1-1v2 2h1 1v-1-1h1 1v2 2h-2-2v1 1h2 2v1 1h1 1v-1zm-8-2v-1h-1-1v1 1h1 1v-1zm18 0v-1h-1-1v1 1h1 1v-1zm-18-4v-1h-1-1v1 1h1 1v-1zm30-2v-1h-1-1v1 1h1 1v-1zm-4-4v-3h-3-3v3 3h3 3v-3zm8-2v-1h-2-2v1 1h2 2v-1zm-28-2v-1h-1-1v1 1h1 1v-1zm8-2v-1h-1-1v1 1h1 1v-1zm12 0v-1h1 1v1 1h1 1v-2-2h1 1v1 1h1 1v-2-2h-2-2v1 1h-2-2v1 1h-1-1v-1-1h-1-1v1 1h1 1v1 1h1 1v-1z"/>
  <path d="m32 21v-1h1 1v1 1h-1-1v-1z"/>
  <path d="m44 21v-1h1 1v1 1h-1-1v-1z"/>
  <path d="m44 51v-7h7 7v7 7h-7-7v-7zm12 0v-5h-5-5v5 5h5 5v-5z"/>
  <path d="m48 51v-3h3 3v3 3h-3-3v-3z"/>
  <path d="m24 46v-2h1 1v2 2h-1-1v-2z"/>
  <path d="m32 45v-1h1 1v1 1h-1-1v-1z"/>
  <path d="m8 41v-1h1 1v-1-1h-1-1v-2-2h1 1v2 2h1 1v-1-1h3 3v3 3h-5-5v-1zm8-2v-1h-1-1v1 1h1 1v-1z"/>
  <path d="m50 41v-1h1 1v1 1h-1-1v-1z"/>
  <path d="m8 15v-7h7 7v7 7h-7-7v-7zm12 0v-5h-5-5v5 5h5 5v-5z"/>
  <path d="m12 15v-3h3 3v3 3h-3-3v-3z"/>
 </g>
</svg>
