<?xml version="1.0" encoding="UTF-8" standalone="no"?>
<!-- Created with Inkscape (http://www.inkscape.org/) -->

<svg
   xmlns:dc="http://purl.org/dc/elements/1.1/"
   xmlns:cc="http://creativecommons.org/ns#"
   xmlns:rdf="http://www.w3.org/1999/02/22-rdf-syntax-ns#"
   xmlns:svg="http://www.w3.org/2000/svg"
   xmlns="http://www.w3.org/2000/svg"
   xmlns:sodipodi="http://sodipodi.sourceforge.net/DTD/sodipodi-0.dtd"
   xmlns:inkscape="http://www.inkscape.org/namespaces/inkscape"
   id="svg2"
   height="627.85"
   width="608.93"
   version="1.1"
   inkscape:version="0.48.3.1 r9886"
   sodipodi:docname="date-picker-2.svg">
  <defs
     id="defs3285" />
  <sodipodi:namedview
     pagecolor="#ffffff"
     bordercolor="#666666"
     borderopacity="1"
     objecttolerance="10"
     gridtolerance="10"
     guidetolerance="10"
     inkscape:pageopacity="0"
     inkscape:pageshadow="2"
     inkscape:window-width="1323"
     inkscape:window-height="827"
     id="namedview3283"
     showgrid="false"
     inkscape:zoom="1.0631661"
     inkscape:cx="72.190685"
     inkscape:cy="285.92136"
     inkscape:window-x="65"
     inkscape:window-y="24"
     inkscape:window-maximized="0"
     inkscape:current-layer="svg2" />
  <metadata
     id="metadata7">
    <rdf:RDF>
      <cc:Work
         rdf:about="">
        <dc:format>image/svg+xml</dc:format>
        <dc:type
           rdf:resource="http://purl.org/dc/dcmitype/StillImage" />
        <dc:title />
      </cc:Work>
    </rdf:RDF>
  </metadata>
  <g
     id="g3358">
    <path
       id="path2987"
       d="m 185.812,12.587 c -57.786,-5.2533 -116.02,4.3372 -174.45,2.9442 -1.0144,29.165 0.02887,63.503 3.6803,89.063 53.928,0.22157 110.31,-0.67619 162.67,-4.4163 -2.9755,-28.267 6.568,-57.864 8.0966,-87.591 z"
       inkscape:connector-curvature="0"
       style="fill:none;stroke:#000000;stroke-width:2" />
    <path
       id="path2987-7"
       d="m 597.932,12.587 c -57.786,-5.2533 -116.02,4.3372 -174.45,2.9442 -1.0144,29.165 0.0289,63.503 3.6803,89.063 53.928,0.22157 110.31,-0.67619 162.67,-4.4163 -2.9755,-28.267 6.568,-57.864 8.0966,-87.591 z"
       inkscape:connector-curvature="0"
       style="fill:none;stroke:#000000;stroke-width:2" />
    <path
       id="path2987-8"
       d="m 185.812,524.813 c -57.786,-5.2533 -116.02,4.3372 -174.45,2.9442 -1.0144,29.164 0.0289,63.503 3.6803,89.063 53.928,0.22157 110.31,-0.67619 162.67,-4.4163 -2.9755,-28.267 6.568,-57.864 8.0966,-87.591 z"
       inkscape:connector-curvature="0"
       style="fill:none;stroke:#000000;stroke-width:2" />
    <path
       id="path2987-0"
       d="m 597.932,524.813 c -57.786,-5.2532 -116.02,4.3372 -174.45,2.9442 -1.0144,29.165 0.0289,63.503 3.6803,89.063 53.928,0.22157 110.31,-0.67619 162.67,-4.4163 -2.9755,-28.267 6.568,-57.864 8.0966,-87.591 z"
       inkscape:connector-curvature="0"
       style="fill:none;stroke:#000000;stroke-width:2" />
    <text
       id="text3807"
       style="font-size:40px;line-height:125%;letter-spacing:0px;word-spacing:0px;fill:#000000;font-family:'Purisa,Comic Sans,cursive'"
       xml:space="preserve"
       font-size="40px"
       line-height="125%"
       y="70.97081"
       x="23.476543"
       sodipodi:linespacing="125%"><tspan
         id="tspan3809"
         font-size="36px"
         y="70.97081"
         x="23.476543"
         style="font-size:36px">Browser</tspan></text>
    <text
       id="text3811"
       style="font-size:40px;line-height:125%;letter-spacing:0px;word-spacing:0px;fill:#000000;font-family:'Purisa,Comic Sans,cursive'"
       xml:space="preserve"
       font-size="40px"
       line-height="125%"
       y="70.322807"
       x="448.50308"
       sodipodi:linespacing="125%"><tspan
         id="tspan3813"
         font-size="36px"
         y="70.322807"
         x="448.50308"
         style="font-size:36px">Server</tspan></text>
    <text
       id="text3807-4"
       style="font-size:40px;line-height:125%;letter-spacing:0px;word-spacing:0px;fill:#000000;font-family:'Purisa,Comic Sans,cursive'"
       xml:space="preserve"
       font-size="40px"
       line-height="125%"
       y="583.19464"
       x="23.476543"
       sodipodi:linespacing="125%"><tspan
         id="tspan3809-4"
         font-size="36px"
         y="583.19464"
         x="23.476543"
         style="font-size:36px">Browser</tspan></text>
    <text
       id="text3811-1"
       style="font-size:40px;line-height:125%;letter-spacing:0px;word-spacing:0px;fill:#000000;font-family:'Purisa,Comic Sans,cursive'"
       xml:space="preserve"
       font-size="40px"
       line-height="125%"
       y="582.54663"
       x="448.50308"
       sodipodi:linespacing="125%"><tspan
         id="tspan3813-6"
         font-size="36px"
         y="582.54663"
         x="448.50308"
         style="font-size:36px">Server</tspan></text>
    <path
       id="path3859"
       d="m 89.812,103.613 c 13.605,141.73 5.7143,283.14 5.7143,422.14"
       inkscape:connector-curvature="0"
       style="fill:none;stroke:#000000;stroke-width:2" />
    <path
       id="path3859-2"
       d="m 497.242,102.893 c 13.605,141.73 5.7143,283.14 5.7143,422.14"
       inkscape:connector-curvature="0"
       style="fill:none;stroke:#000000;stroke-width:2" />
    <text
       id="text3921"
       style="font-size:40px;line-height:125%;letter-spacing:0px;word-spacing:0px;fill:#000000;font-family:'Purisa,Comic Sans,cursive'"
       xml:space="preserve"
       font-size="40px"
       line-height="125%"
       y="306.42087"
       x="119.99977"
       sodipodi:linespacing="125%"><tspan
         id="tspan3923"
         font-size="28px"
         y="306.42087"
         x="119.99977"
         style="font-size:28px">Render only input field</tspan></text>
    <g
       transform="translate(-15.188,-10.897)"
       id="g3934"
       style="fill:none;stroke:#000000;stroke-width:2">
      <path
         id="path3883"
         d="m 110,183.79 c 134.38,-4.2547 277.53,3.6235 407.14,-2.8571"
         inkscape:connector-curvature="0" />
      <path
         id="path3932"
         d="m 445.48,135.91 c 19.143,7.8824 38.414,20.005 55.558,33.335 -13.369,18.179 -41.25,23.382 -55.558,32.325"
         transform="translate(15.188,10.897)"
         inkscape:connector-curvature="0" />
    </g>
    <path
       id="path3883-1"
       d="m 505.422,243.523 c -134.38,-4.25 -277.53,3.62 -407.14,-2.86"
       inkscape:connector-curvature="0"
       style="fill:none;stroke:#000000;stroke-width:2" />
    <path
       id="path3932-8"
       d="m 154.762,206.533 c -19.143,7.8824 -38.414,20.005 -55.558,33.335 13.369,18.179 41.25,23.382 55.558,32.325"
       inkscape:connector-curvature="0"
       style="fill:none;stroke:#000000;stroke-width:2" />
    <path
       id="path3985"
       d="m 97.143,371.42 c 33.469,1.7259 84.612,-3.8069 110.71,7.1429 8.4118,3.5287 11.922,12.16 16.429,25 6.7731,19.299 -7.9328,33.178 -17.143,46.429 -13.584,19.544 -82.789,5 -110.71,5"
       inkscape:connector-curvature="0"
       style="fill:none;stroke:#000000;stroke-width:2" />
    <path
       id="path3932-8-2"
       d="m 152.592,421.783 c -19.143,7.8824 -38.414,20.005 -55.558,33.335 13.369,18.179 41.25,23.382 55.558,32.325"
       inkscape:connector-curvature="0"
       style="fill:none;stroke:#000000;stroke-width:2" />
    <text
       sodipodi:linespacing="125%"
       x="242.27606"
       y="418.35071"
       line-height="125%"
       font-size="40px"
       xml:space="preserve"
       style="font-size:40px;line-height:125%;letter-spacing:0px;word-spacing:0px;fill:#000000;font-family:'Purisa,Comic Sans,cursive'"
       id="text3346"><tspan
         style="font-size:28px"
         x="242.27606"
         y="418.35071"
         font-size="28px"
         id="tspan3348">Add button </tspan></text>
    <text
       id="text3354"
       sodipodi:linespacing="125%"
       x="241.33548"
       y="453.15244"
       line-height="125%"
       font-size="40px"
       xml:space="preserve"
       style="font-size:40px;line-height:125%;letter-spacing:0px;word-spacing:0px;fill:#000000;font-family:'Purisa,Comic Sans,cursive'"><tspan
         id="tspan3356"
         style="font-size:28px"
         x="241.33548"
         y="453.15244"
         font-size="28px">using JS</tspan></text>
  </g>
</svg>
