<?xml version="1.0" encoding="UTF-8" standalone="no"?>
<!-- Created with Inkscape (http://www.inkscape.org/) -->
<svg xmlns:rdf="http://www.w3.org/1999/02/22-rdf-syntax-ns#" xmlns="http://www.w3.org/2000/svg" height="58.1" width="279" version="1.1" xmlns:cc="http://creativecommons.org/ns#" xmlns:xlink="http://www.w3.org/1999/xlink" xmlns:dc="http://purl.org/dc/elements/1.1/">
 <defs>
  <marker id="TriangleInM" refY="0" refX="0" overflow="visible" orient="auto">
   <path d="m5.77 0-8.65 5v-10l8.65 5z" fill-rule="evenodd" transform="scale(-.4)" stroke="#f24c00" stroke-width="1pt" fill="#f24c00"/>
  </marker>
  <marker id="TriangleOutM" refY="0" refX="0" overflow="visible" orient="auto">
   <path d="m5.77 0-8.65 5v-10l8.65 5z" fill-rule="evenodd" transform="scale(.4)" stroke="#f24c00" stroke-width="1pt" fill="#f24c00"/>
  </marker>
  <linearGradient id="linearGradient1413" y2="31.2" xlink:href="#linearGradient2253" gradientUnits="userSpaceOnUse" x2="32.5" gradientTransform="scale(1.1 .905)" y1="5.38" x1="10.4"/>
  <linearGradient id="linearGradient1411" y2="100" xlink:href="#linearGradient2752" gradientUnits="userSpaceOnUse" x2="8.11" gradientTransform="scale(2.31 .433)" y1="88.5" x1="8.11"/>
  <linearGradient id="linearGradient2991" y2="44.9" gradientUnits="userSpaceOnUse" x2="-23.9" gradientTransform="scale(1.49 .670)" y1="50" x1="-23.9">
   <stop stop-color="#d8dfd6" offset="0"/>
   <stop stop-color="#d8dfd6" stop-opacity="0" offset="1"/>
  </linearGradient>
  <linearGradient id="linearGradient2981" y2="52.5" xlink:href="#linearGradient2245" gradientUnits="userSpaceOnUse" x2="18.2" gradientTransform="scale(1.13 .885)" y1="48.6" x1="18.3"/>
  <linearGradient id="linearGradient2741" y2="74.1" gradientUnits="userSpaceOnUse" x2="8.65" gradientTransform="matrix(2.14 0 0 .466 1 -.509)" y1="101" x1="13.6">
   <stop stop-color="#f9fff5" offset="0"/>
   <stop stop-color="#f9fff5" stop-opacity="0" offset="1"/>
  </linearGradient>
  <linearGradient id="linearGradient2733" y2="3.85" xlink:href="#linearGradient2711" gradientUnits="userSpaceOnUse" x2="35.5" y1="3.94" x1="34.3"/>
  <linearGradient id="linearGradient2707" y2="64.9" gradientUnits="userSpaceOnUse" x2="12.1" gradientTransform="scale(1.82 .551)" y1="53.5" x1="12.2">
   <stop stop-color="#585956" offset="0"/>
   <stop stop-color="#bbbeb8" offset="1"/>
  </linearGradient>
  <linearGradient id="linearGradient2689" y2="162" gradientUnits="userSpaceOnUse" x2="3.71" gradientTransform="matrix(5.71 0 0 .175 1 -.679)" y1="171" x1="3.71">
   <stop offset="0"/>
   <stop stop-opacity="0" offset="1"/>
  </linearGradient>
  <linearGradient id="linearGradient2681" y2="8.87" gradientUnits="userSpaceOnUse" x2="16.3" gradientTransform="matrix(1.17 0 0 .945 .722 -1.33)" y1="32.6" x1="19.2">
   <stop stop-color="#5b5b97" offset="0"/>
   <stop stop-color="#1b1b43" offset="1"/>
  </linearGradient>
  <linearGradient id="linearGradient2673" y2="26.7" gradientUnits="userSpaceOnUse" x2="17.2" gradientTransform="matrix(1.24 0 0 .896 .591 -1.33)" y1="1.65" x1="11.5">
   <stop stop-color="#fff" offset="0"/>
   <stop stop-color="#fcfcff" stop-opacity="0" offset="1"/>
  </linearGradient>
  <radialGradient id="radialGradient2659" xlink:href="#linearGradient2454" gradientUnits="userSpaceOnUse" cy="67.5" cx="12.6" gradientTransform="scale(1.93 .519)" r="8.77"/>
  <linearGradient id="linearGradient2421" y2="55.2" gradientUnits="userSpaceOnUse" x2="35" gradientTransform="matrix(1.11 0 0 .902 1 1)" y1="13" x1="17.7">
   <stop stop-color="#fff" offset="0"/>
   <stop stop-color="#fff" stop-opacity="0" offset="1"/>
  </linearGradient>
  <linearGradient id="linearGradient2251" y2="33.3" xlink:href="#linearGradient2245" gradientUnits="userSpaceOnUse" x2="34.8" gradientTransform="matrix(1.13 0 0 .885 -1.62 -1.3)" y1="7.23" x1="8.61"/>
  <linearGradient id="linearGradient2245">
   <stop stop-color="#dde1d9" offset="0"/>
   <stop stop-color="#cacdc6" offset="1"/>
  </linearGradient>
  <linearGradient id="linearGradient2253">
   <stop stop-color="#8f8f8f" offset="0"/>
   <stop stop-color="#494949" offset="1"/>
  </linearGradient>
  <linearGradient id="linearGradient2454">
   <stop offset="0"/>
   <stop stop-opacity="0" offset="1"/>
  </linearGradient>
  <linearGradient id="linearGradient2711">
   <stop stop-color="#909090" offset="0"/>
   <stop stop-color="#bebebe" stop-opacity="0" offset="1"/>
  </linearGradient>
  <linearGradient id="linearGradient2752">
   <stop stop-color="#9d9d9d" offset="0"/>
   <stop stop-color="#b9b9b9" offset="1"/>
  </linearGradient>
  <linearGradient id="linearGradient4088" y2="30.9" xlink:href="#linearGradient2454" gradientUnits="userSpaceOnUse" x2="16.4" gradientTransform="translate(11.6)" y1="39.9" x1="16.4"/>
  <linearGradient id="linearGradient4086" y2="30.9" xlink:href="#linearGradient2454" gradientUnits="userSpaceOnUse" x2="16.4" gradientTransform="translate(9.62)" y1="39.9" x1="16.4"/>
  <linearGradient id="linearGradient4084" y2="30.9" xlink:href="#linearGradient2454" gradientUnits="userSpaceOnUse" x2="16.4" gradientTransform="translate(7.62)" y1="39.9" x1="16.4"/>
  <linearGradient id="linearGradient4082" y2="30.9" xlink:href="#linearGradient2454" gradientUnits="userSpaceOnUse" x2="16.4" gradientTransform="translate(5.62)" y1="39.9" x1="16.4"/>
  <linearGradient id="linearGradient4080" y2="30.9" xlink:href="#linearGradient2454" gradientUnits="userSpaceOnUse" x2="16.4" gradientTransform="translate(3.62)" y1="39.9" x1="16.4"/>
  <linearGradient id="linearGradient4078" y2="30.9" xlink:href="#linearGradient2454" gradientUnits="userSpaceOnUse" x2="16.4" gradientTransform="translate(1.62)" y1="39.9" x1="16.4"/>
  <linearGradient id="linearGradient4076" y2="30.9" xlink:href="#linearGradient4449" gradientUnits="userSpaceOnUse" x2="16.4" gradientTransform="translate(12.7)" y1="39.9" x1="16.4"/>
  <linearGradient id="linearGradient4074" y2="30.9" xlink:href="#linearGradient4449" gradientUnits="userSpaceOnUse" x2="16.4" gradientTransform="translate(10.7)" y1="39.9" x1="16.4"/>
  <linearGradient id="linearGradient4072" y2="30.9" xlink:href="#linearGradient4449" gradientUnits="userSpaceOnUse" x2="16.4" gradientTransform="translate(8.71)" y1="39.9" x1="16.4"/>
  <linearGradient id="linearGradient4070" y2="30.9" xlink:href="#linearGradient4449" gradientUnits="userSpaceOnUse" x2="16.4" gradientTransform="translate(6.71)" y1="39.9" x1="16.4"/>
  <linearGradient id="linearGradient4068" y2="30.9" xlink:href="#linearGradient4449" gradientUnits="userSpaceOnUse" x2="16.4" gradientTransform="translate(4.71)" y1="39.9" x1="16.4"/>
  <linearGradient id="linearGradient4066" y2="30.9" xlink:href="#linearGradient4449" gradientUnits="userSpaceOnUse" x2="16.4" gradientTransform="translate(2.71)" y1="39.9" x1="16.4"/>
  <linearGradient id="linearGradient4064" y2="26.8" gradientUnits="userSpaceOnUse" x2="22.3" gradientTransform="matrix(.956 0 0 1 .870 0)" y1="26.9" x1="27.3">
   <stop stop-color="#fff" offset="0"/>
   <stop stop-color="#fff" stop-opacity="0" offset="1"/>
  </linearGradient>
  <linearGradient id="linearGradient4060" y2="10" gradientUnits="userSpaceOnUse" x2="23.2" gradientTransform="translate(-5.09e-7 .404)" y1="34.5" x1="24.3">
   <stop stop-color="#d2d2d2" offset="0"/>
   <stop stop-color="#dfdfdf" offset="1"/>
  </linearGradient>
  <linearGradient id="linearGradient5403" y2="118" gradientUnits="userSpaceOnUse" x2="15.3" gradientTransform="matrix(2.74 0 0 .148 31.4 14.8)" y1="118" x1="1.64">
   <stop stop-color="#fff" stop-opacity="0" offset="0"/>
   <stop stop-color="#fff" stop-opacity=".707" offset=".108"/>
   <stop stop-color="#fff" stop-opacity=".707" offset=".921"/>
   <stop stop-color="#fff" stop-opacity="0" offset="1"/>
  </linearGradient>
  <linearGradient id="linearGradient5401" y2="373" xlink:href="#linearGradient272" gradientUnits="userSpaceOnUse" x2="5.09" gradientTransform="matrix(8.17 0 0 .229 31.4 -46.3)" y1="373" x1=".612"/>
  <linearGradient id="linearGradient5399" y2="373" xlink:href="#linearGradient272" gradientUnits="userSpaceOnUse" x2="5.09" gradientTransform="matrix(8.17 0 0 .221 31.4 -48.3)" y1="373" x1=".612"/>
  <linearGradient id="linearGradient5397" y2="118" gradientUnits="userSpaceOnUse" x2="15.3" gradientTransform="matrix(2.74 0 0 .365 31.4 -10.4)" y1="118" x1="1.64">
   <stop stop-color="#686868" stop-opacity="0" offset="0"/>
   <stop stop-color="#686868" offset=".238"/>
   <stop stop-color="#686868" offset=".781"/>
   <stop stop-color="#686868" stop-opacity="0" offset="1"/>
  </linearGradient>
  <radialGradient id="radialGradient4549" gradientUnits="userSpaceOnUse" cy="38.7" cx="23.5" gradientTransform="matrix(1 0 0 .394 0 23.4)" r="14.3">
   <stop offset="0"/>
   <stop stop-opacity="0" offset="1"/>
  </radialGradient>
  <linearGradient id="linearGradient4449">
   <stop stop-color="#fff" offset="0"/>
   <stop stop-color="#fff" stop-opacity="0" offset="1"/>
  </linearGradient>
  <linearGradient id="linearGradient272">
   <stop stop-color="#474747" stop-opacity="0" offset="0"/>
   <stop stop-color="#474747" offset=".1"/>
   <stop stop-color="#474747" offset="0.9"/>
   <stop stop-color="#474747" stop-opacity="0" offset="1"/>
  </linearGradient>
 </defs>
 <metadata>
  <rdf:RDF>
   <cc:Work rdf:about="">
    <dc:format>image/svg+xml</dc:format>
    <dc:type rdf:resource="http://purl.org/dc/dcmitype/StillImage"/>
    <dc:title/>
   </cc:Work>
  </rdf:RDF>
 </metadata>
 <g transform="translate(-188 -545)">
  <g transform="translate(191 550)">
   <path style="color:#000000" d="m41.1 35.1a16.9 4.55 0 1 1 -33.8 0 16.9 4.55 0 1 1 33.8 0z" fill-rule="evenodd" transform="matrix(1 0 0 1.37 -1.98 -13.6)" fill="url(#radialGradient2659)"/>
   <path style="color:#000000" d="m-26.3 29.7a9.39 3.94 0 1 1 -18.8 0 9.39 3.94 0 1 1 18.8 0z" fill-rule="evenodd" transform="translate(57.5 3.2)" stroke="#4b4d4a" fill="#adb0aa"/>
   <path style="color:#000000" d="m-26.3 29.7a9.39 3.94 0 1 1 -18.8 0 9.39 3.94 0 1 1 18.8 0z" transform="matrix(.940 0 0 .940 55.4 4.27)" stroke="#7b7f7a" fill="none"/>
   <path style="color:#000000" d="m-26.3 29.7a9.39 3.94 0 1 1 -18.8 0 9.39 3.94 0 1 1 18.8 0z" transform="matrix(.940 0 0 .940 55.4 3.52)" stroke="url(#linearGradient2991)" stroke-width=".681" fill="none"/>
   <path stroke-linejoin="round" d="m25.7 28.8-0.0625 1s4.32 3.6 9 4.2c2.34 0.302 4.75 0.702 6.75 1.19 2 0.485 3.59 1.12 4.12 1.66 0.31 0.31 0.451 0.574 0.5 0.781 0.0489 0.208 0.0382 0.355-0.0938 0.562-0.264 0.415-1.08 0.968-2.47 1.41-2.7 0.8-7.7 1.4-14.5 1.4v1c6.9 0 11.9-0.528 14.8-1.47 1.49-0.471 2.52-1.02 3.03-1.81 0.3-0.4 0.4-0.9 0.3-1.3-0.1-0.5-0.4-0.9-0.8-1.3-0.9-0.9-2.5-1.4-4.6-1.9-2-0.5-4.5-0.9-6.8-1.2-4.8-0.6-9.1-4.2-9.1-4.2z" fill-rule="evenodd" stroke="#979797" stroke-width="0.4" fill="#d0d0d0"/>
   <path style="color:#000000" d="m41.1 35.1a16.9 4.55 0 1 1 -33.8 0 16.9 4.55 0 1 1 33.8 0z" fill-rule="evenodd" transform="matrix(1 0 0 1.37 -1.98 -19)" fill="url(#radialGradient2659)"/>
   <rect style="color:#000000" fill-rule="evenodd" height="2.74" width="9.04" y="30.7" x="17.5" fill="url(#linearGradient2707)"/>
   <path style="color:#000000" d="m7.08 1.7h29.6c0.911 0 1.62 0.583 1.67 1.4l1.33 25.6c0.0582 1.12-0.901 2.02-2.02 2.02h-31.5c-1.12 0-2.08-0.903-2.02-2.02l1.23-25.6c0.0403-0.774 0.548-1.4 1.67-1.4z" fill-rule="evenodd" stroke="url(#linearGradient1413)" fill="url(#linearGradient2251)"/>
   <path stroke-linejoin="round" d="m8.41 4.31-1.24 22h27.7l-1.4-21.9-25.1-0.09z" fill-rule="evenodd" stroke="#000079" stroke-width=".5" fill="url(#linearGradient2681)"/>
   <path d="m6.18 28.7h31.4" stroke-opacity=".248" stroke="url(#linearGradient2689)" stroke-linecap="round" stroke-width=".996" fill="none"/>
   <path style="color:#000000" d="m6.91 2.71 29.9-0.04c0.284-0.000359 0.559 0.237 0.582 0.653l1.3 24.8c0.058 1.06-0.54 1.79-1.6 1.79h-30.5c-1.06 0-1.59-0.729-1.54-1.79l1.31-24.5c0.04-0.69 0.17-0.89 0.54-0.89z" stroke-opacity=".701" stroke="url(#linearGradient2421)" fill="none"/>
   <path opacity=".531" d="m8.71 4.75-0.8 17.8c11.1-2.4 11.4-10.5 25.2-13.1l-0.2-4.69-24.2-0.06z" fill-rule="evenodd" fill="url(#linearGradient2673)"/>
   <path style="color:#000000" d="m41.1 35.1a16.9 4.55 0 1 1 -33.8 0 16.9 4.55 0 1 1 33.8 0z" fill-rule="evenodd" transform="matrix(1.26 0 0 1.29 -6.22 -4)" fill="url(#radialGradient2659)"/>
   <path style="color:#000000" d="m6.46 36.8h31c1.12 0 0.977 0.271 1.09 0.613l2.83 8.42c0.115 0.341 0.027 0.613-1.09 0.613h-36.7c-1.12 0-1.21-0.271-1.09-0.613l2.83-8.42c0.115-0.341-0.027-0.613 1.09-0.613z" fill-rule="evenodd" stroke="url(#linearGradient1413)" fill="url(#linearGradient2981)"/>
   <path d="m6.39 38.8-1.77 5.13h5.48l0.53-2.03h14.8l0.55 2.08h6.17l-1.68-5.17h-24.1z" fill-rule="evenodd" fill="#7a7d77"/>
   <path d="m11.1 42.3-0.442 1.68h14.8l-0.442-1.77-13.9 0.0884z" fill-rule="evenodd" fill="#777874"/>
   <path style="color:#000000" d="m37.6 38.8 1.68 5.04-5.48-0.0884-1.5-4.86 5.3-0.0884z" fill-rule="evenodd" fill="#777a75"/>
   <path style="color:#000000" d="m37.6 38.3 1.68 5.04-5.48-0.0884-1.5-4.86 5.3-0.0884z" fill-rule="evenodd" fill="url(#linearGradient1411)"/>
   <path d="m6.39 38.2-1.77 5.13h5.48l0.53-2.03h14.8l0.55 2.08h6.17l-1.68-5.17h-24.1z" fill-rule="evenodd" fill="url(#linearGradient1411)"/>
   <path style="color:#000000" d="m11.1 41.7-0.442 1.68h14.8l-0.442-1.77-13.9 0.0884z" fill-rule="evenodd" fill="url(#linearGradient1411)"/>
   <path stroke-linejoin="round" style="color:#000000" d="m6.13 37.6h31.8l2.64 8.09h-37.3l2.8-8.09z" stroke="url(#linearGradient2741)" stroke-width=".5" fill="none"/>
   <path style="color:#000000" d="m35.6 3.94a0.84 0.84 0 1 1 -1.68 0 0.84 0.84 0 1 1 1.68 0z" fill-rule="evenodd" transform="matrix(1.33 0 0 .658 -10.4 2.85)" fill="url(#linearGradient2733)"/>
   <path style="color:#000000" d="m35.6 3.94a0.84 0.84 0 1 1 -1.68 0 0.84 0.84 0 1 1 1.68 0z" fill-rule="evenodd" transform="matrix(1.33 0 0 .658 -10.3 4.96)" fill="url(#linearGradient2733)"/>
   <path style="color:#000000" d="m35.6 3.94a0.84 0.84 0 1 1 -1.68 0 0.84 0.84 0 1 1 1.68 0z" fill-rule="evenodd" transform="matrix(1.33 0 0 .658 -10.2 6.96)" fill="url(#linearGradient2733)"/>
   <path style="color:#000000" d="m35.6 3.94a0.84 0.84 0 1 1 -1.68 0 0.84 0.84 0 1 1 1.68 0z" fill-rule="evenodd" transform="matrix(1.33 0 0 .658 -10.1 8.96)" fill="url(#linearGradient2733)"/>
   <path style="color:#000000" d="m35.6 3.94a0.84 0.84 0 1 1 -1.68 0 0.84 0.84 0 1 1 1.68 0z" fill-rule="evenodd" transform="matrix(1.33 0 0 .658 -9.96 11)" fill="url(#linearGradient2733)"/>
   <path fill="#4a4a4a" d="m20 27.3h0.282c0.0838 0.000001 0.148 0.0187 0.193 0.056 0.045 0.037 0.0674 0.0899 0.0674 0.159-0.000001 0.0691-0.0225 0.122-0.0674 0.16-0.0447 0.037-0.109 0.0556-0.193 0.0556h-0.112v0.228h-0.17v-0.658m0.17 0.123v0.184h0.0939c0.0329 0 0.0583-0.0079 0.0763-0.0238 0.0179-0.0162 0.0269-0.0389 0.0269-0.0683s-0.009-0.052-0.0269-0.0679-0.0434-0.0238-0.0763-0.0238h-0.0939m0.792-0.0119c-0.0517 0.000001-0.0918 0.0191-0.12 0.0573-0.0285 0.0382-0.0428 0.092-0.0428 0.161 0 0.0691 0.0142 0.123 0.0428 0.161 0.0285 0.0382 0.0686 0.0573 0.12 0.0573 0.052 0 0.0923-0.0191 0.121-0.0573 0.0285-0.0382 0.0428-0.0918 0.0428-0.161-0.000001-0.0694-0.0142-0.123-0.0428-0.161-0.0285-0.0382-0.0688-0.0573-0.121-0.0573m0-0.123c0.106 0.000001 0.189 0.0303 0.249 0.0908 0.06 0.0606 0.0899 0.144 0.0899 0.251-0.000001 0.106-0.03 0.19-0.0899 0.25-0.06 0.0606-0.143 0.0908-0.249 0.0908s-0.188-0.0303-0.249-0.0908c-0.06-0.0606-0.0899-0.144-0.0899-0.25 0-0.107 0.03-0.19 0.0899-0.251 0.0602-0.0606 0.143-0.0908 0.249-0.0908m0.466 0.0119h0.19l0.239 0.451v-0.451h0.161v0.658h-0.19l-0.239-0.451v0.451h-0.161v-0.658m0.663 0h0.186l0.15 0.235 0.15-0.235h0.186l-0.251 0.381v0.277h-0.17v-0.277l-0.251-0.381"/>
  </g>
  <g transform="matrix(1.14 0 0 1.14 408 546)">
   <path opacity=".410" style="color:#000000" d="m37.9 38.7a14.3 5.66 0 1 1 -28.7 0 14.3 5.66 0 1 1 28.7 0z" fill-rule="evenodd" transform="matrix(1 0 0 .879 0 6.98)" fill="url(#radialGradient4549)"/>
   <g opacity=".634" transform="matrix(1.26 0 0 .690 -44.8 2.08)">
    <rect style="color:#000000" height="4" width="36.5" display="block" y="30.6" x="36.4" fill="url(#linearGradient5397)"/>
    <rect style="color:#000000" height=".990" width="36.5" display="block" y="33.6" x="36.4" fill="url(#linearGradient5399)"/>
    <rect style="color:#000000" height="1.02" width="36.5" display="block" y="30.3" x="36.4" fill="url(#linearGradient5401)"/>
    <rect style="color:#000000" height="1.62" width="36.5" display="block" y="31.4" x="36.4" fill="url(#linearGradient5403)"/>
   </g>
   <path style="color:#000000" d="m68.2 26.2a2.17 2.17 0 1 1 -4.34 0 2.17 2.17 0 1 1 4.34 0z" fill-rule="evenodd" transform="matrix(.921 0 0 .921 -26.3 .344)" stroke="#8a8a8a" stroke-width="1.09" fill="#eaeaea"/>
   <g transform="translate(0 1)">
    <path stroke-linejoin="round" d="m12.5 8v33.5h22v-33.7l-4.04-4.24h-14.1l-3.84 4.44z" fill-rule="evenodd" transform="translate(.0118 -.0550)" stroke="#5e5e5e" stroke-linecap="round" stroke-width=".999px" fill="url(#linearGradient4060)"/>
    <path d="m16.4 4-3.4 4.86h20.3l-3.7-4.72-13.2-0.14z" fill-rule="evenodd" fill-opacity=".655" transform="matrix(1.04 0 0 1.03 -.458 -.118)" fill="#fff"/>
    <rect height="4.24" stroke="#fff" stroke-width="1.02" fill="#fff" style="color:#000000" fill-rule="evenodd" transform="matrix(1.03 0 0 .943 -.872 .354)" width="15.6" opacity=".349" y="11.3" x="16.5"/>
    <path d="m13.5 8.62v31.8h19.8v-32l-3.67-3.85h-12.7l-3.49 4.04z" transform="matrix(1.01 0 0 1.01 -.0858 -.107)" stroke="#fff" stroke-width=".993" fill="none"/>
    <rect height="5.04" stroke="url(#linearGradient4064)" stroke-width="1.12" fill="url(#linearGradient4064)" style="color:#000000" fill-rule="evenodd" transform="matrix(1.01 0 0 .793 -.745 5.31)" width="10.9" opacity=".526" y="23.6" x="21.5"/>
    <rect style="color:#000000" fill-rule="evenodd" transform="matrix(1.05 0 0 .943 -1.37 1.39)" height="4.24" width="10.4" stroke="#acacac" y="23.5" x="20.8" fill="#c8c8c8"/>
    <rect height="4.24" stroke="#fff" stroke-width="1.02" fill="#fff" style="color:#000000" fill-rule="evenodd" transform="matrix(1.03 0 0 .943 -.872 .698)" width="15.6" opacity=".349" y="17.3" x="16.5"/>
    <rect style="color:#000000" fill-rule="evenodd" transform="matrix(1.01 0 0 .943 -.152 1.05)" height="4.24" width="15.8" stroke="#acacac" y="16.4" x="15.4" stroke-width="1.02" fill="#c8c8c8"/>
    <rect style="color:#000000" fill-rule="evenodd" transform="matrix(1.01 0 0 .943 -.152 .712)" height="4.24" width="15.8" stroke="#acacac" y="10.4" x="15.4" stroke-width="1.02" fill="#c8c8c8"/>
    <g fill-rule="evenodd" transform="matrix(.886 0 0 .893 2.13 2.88)">
     <path style="color:#000000" d="m68.2 26.2a2.17 2.17 0 1 1 -4.34 0 2.17 2.17 0 1 1 4.34 0z" transform="matrix(.780 0 0 .774 -34.7 5.6)" stroke="#979797" stroke-width="1.45" fill="#c8c8c8"/>
     <path style="color:#000000" d="m16.7 25.6a0.505 0.505 0 1 1 -1.01 0 0.505 0.505 0 1 1 1.01 0z" transform="matrix(1.01 0 0 1 -.0740 -.0550)" fill="#fff"/>
    </g>
    <rect style="color:#000000" fill-rule="evenodd" transform="matrix(.990 0 0 .990 .120 .482)" height="10.1" width="1.01" y="29.8" x="19.1" fill="url(#linearGradient4066)"/>
    <rect style="color:#000000" fill-rule="evenodd" transform="matrix(.990 0 0 .990 .140 .482)" height="10.1" width="1.01" y="29.8" x="21.1" fill="url(#linearGradient4068)"/>
    <rect style="color:#000000" fill-rule="evenodd" transform="matrix(.990 0 0 .990 .160 .482)" height="10.1" width="1.01" y="29.8" x="23.1" fill="url(#linearGradient4070)"/>
    <rect style="color:#000000" fill-rule="evenodd" transform="matrix(.990 0 0 .990 .180 .482)" height="10.1" width="1.01" y="29.8" x="25.1" fill="url(#linearGradient4072)"/>
    <rect style="color:#000000" fill-rule="evenodd" transform="matrix(.990 0 0 .990 .201 .482)" height="10.1" width="1.01" y="29.8" x="27.1" fill="url(#linearGradient4074)"/>
    <rect opacity=".543" style="color:#000000" fill-rule="evenodd" transform="matrix(.990 0 0 .990 .221 .482)" height="10.1" width="1.01" y="29.8" x="29.1" fill="url(#linearGradient4076)"/>
    <rect opacity=".160" style="color:#000000" fill-rule="evenodd" transform="matrix(.990 0 0 .990 0.2 .482)" height="10.1" width="1.01" y="29.8" x="18" fill="url(#linearGradient4078)"/>
    <rect opacity=".291" style="color:#000000" fill-rule="evenodd" transform="matrix(.990 0 0 .990 .220 .482)" height="10.1" width="1.01" y="29.8" x="20" fill="url(#linearGradient4080)"/>
    <rect opacity=".291" style="color:#000000" fill-rule="evenodd" transform="matrix(.990 0 0 .990 .240 .482)" height="10.1" width="1.01" y="29.8" x="22" fill="url(#linearGradient4082)"/>
    <rect opacity=".291" style="color:#000000" fill-rule="evenodd" transform="matrix(.990 0 0 .990 .260 .482)" height="10.1" width="1.01" y="29.8" x="24" fill="url(#linearGradient4084)"/>
    <rect opacity=".291" style="color:#000000" fill-rule="evenodd" transform="matrix(.990 0 0 .990 .280 .482)" height="10.1" width="1.01" y="29.8" x="26" fill="url(#linearGradient4086)"/>
    <rect opacity=".229" style="color:#000000" fill-rule="evenodd" transform="matrix(.990 0 0 .990 .301 .482)" height="10.1" width="1.01" y="29.8" x="28" fill="url(#linearGradient4088)"/>
   </g>
  </g>
 </g>
 <path marker-end="url(#TriangleOutM)" d="m71.4 18.7h135" stroke="#f24c00" stroke-width="1.75" fill="none"/>
 <path d="m72.7 39.3h135" marker-start="url(#TriangleInM)" stroke="#f24c00" stroke-width="1.75" fill="none"/>
</svg>
