<?xml version="1.0" encoding="UTF-8" standalone="no"?>
<!-- Created with Inkscape (http://www.inkscape.org/) -->
<svg id="svg2" xmlns:rdf="http://www.w3.org/1999/02/22-rdf-syntax-ns#" xmlns="http://www.w3.org/2000/svg" 
  height="320" 
  width="410" 
  version="1.1" xmlns:cc="http://creativecommons.org/ns#" xmlns:dc="http://purl.org/dc/elements/1.1/">
 <metadata id="metadata7">
  <rdf:RDF>
   <cc:Work rdf:about="">
    <dc:format>image/svg+xml</dc:format>
    <dc:type rdf:resource="http://purl.org/dc/dcmitype/StillImage"/>
    <dc:title/>
   </cc:Work>
  </rdf:RDF>
 </metadata>

 <rect x="4" y="54" height="200" width="400" fill="#ddd"></rect>
 <rect x="4" y="54" height="170" width="120" fill="none" stroke="#000" stroke-width="6"></rect>

 <path d="m7 40h112" stroke="#000" stroke-width="4" style="marker-start:url(#Arrow-start-S);marker-end:url(#Arrow-end-S)"></path>
 <text x="0" y="24" font-size="20" font-family="Helvetica">Visual viewport</text>

 <text x="20" y="90" style="font-size: 25px; font-familiy: Helvetica; font-weight: bold;">Lorem ipsum and stuff...</text>
 <path d="m20 130h200" stroke="#000" stroke-width="2"/>
 <path d="m20 150h200" stroke="#000" stroke-width="2"/>
 <path d="m20 170h200" stroke="#000" stroke-width="2"/>
 <path d="m20 190h200" stroke="#000" stroke-width="2"/>
 <path d="m20 210h200" stroke="#000" stroke-width="2"/>
 <rect x="260" y="130" fill="#f00" height="80" width="120"></rect>

 <path d="m8 275h390" stroke="#000" stroke-width="4" style="marker-start:url(#Arrow-start);marker-end:url(#Arrow-end)"></path>
 <text x="135" y="305" font-size="20" font-family="Helvetica">Layout viewport</text>

 <defs>
    <marker
       refX="0"
       refY="0"
       orient="auto"
       id="Arrow-end"
       style="overflow:visible">
      <path
         d="M 0,0 5,-5 -12.5,0 5,5 0,0 z"
         transform="matrix(-0.4,0,0,-0.4,-4,0)"
         style="fill-rule:evenodd;stroke:#000000;stroke-width:1pt;marker-start:none" />
    </marker>
    <marker
       refX="0"
       refY="0"
       orient="auto"
       id="Arrow-start"
       style="overflow:visible">
      <path
         d="M 0,0 5,-5 -12.5,0 5,5 0,0 z"
         transform="matrix(0.4,0,0,-0.4,4,0)"
         style="fill-rule:evenodd;stroke:#000000;stroke-width:1pt;marker-start:none" />
    </marker>
    <marker
       refX="0"
       refY="0"
       orient="auto"
       id="Arrow-end-S"
       style="overflow:visible">
      <path
         d="M 0,0 5,-5 -12.5,0 5,5 0,0 z"
         transform="matrix(-0.25,0,0,-0.25,-2.5,0)"
         style="fill-rule:evenodd;stroke:#000000;stroke-width:1pt;marker-start:none" />
    </marker>
    <marker
       refX="0"
       refY="0"
       orient="auto"
       id="Arrow-start-S"
       style="overflow:visible">
      <path
         d="M 0,0 5,-5 -12.5,0 5,5 0,0 z"
         transform="matrix(0.25,0,0,-0.25,2.5,0)"
         style="fill-rule:evenodd;stroke:#000000;stroke-width:1pt;marker-start:none" />
    </marker>
  </defs>

</svg>
