<?xml version="1.0" encoding="UTF-8" standalone="no"?>
<!-- Created with Inkscape (http://www.inkscape.org/) -->
<svg id="svg2" xmlns:rdf="http://www.w3.org/1999/02/22-rdf-syntax-ns#" xmlns="http://www.w3.org/2000/svg" height="627.85" width="608.93" version="1.1" xmlns:cc="http://creativecommons.org/ns#" xmlns:dc="http://purl.org/dc/elements/1.1/">
 <metadata id="metadata7">
  <rdf:RDF>
   <cc:Work rdf:about="">
    <dc:format>image/svg+xml</dc:format>
    <dc:type rdf:resource="http://purl.org/dc/dcmitype/StillImage"/>
    <dc:title/>
   </cc:Work>
  </rdf:RDF>
 </metadata>
 <g id="layer1" transform="translate(-15.188 -10.897)">
  <path id="path2987" d="m201 23.484c-57.786-5.2533-116.02 4.3372-174.45 2.9442-1.0144 29.165 0.02887 63.503 3.6803 89.063 53.928 0.22157 110.31-0.67619 162.67-4.4163-2.9755-28.267 6.568-57.864 8.0966-87.591z" stroke="#000" stroke-width="2" fill="none"/>
  <path id="path2987-7" d="m613.12 23.484c-57.786-5.2533-116.02 4.3372-174.45 2.9442-1.0144 29.165 0.0289 63.503 3.6803 89.063 53.928 0.22157 110.31-0.67619 162.67-4.4163-2.9755-28.267 6.568-57.864 8.0966-87.591z" stroke="#000" stroke-width="2" fill="none"/>
  <path id="path2987-8" d="m201 535.71c-57.786-5.2533-116.02 4.3372-174.45 2.9442-1.0144 29.164 0.0289 63.503 3.6803 89.063 53.928 0.22157 110.31-0.67619 162.67-4.4163-2.9755-28.267 6.568-57.864 8.0966-87.591z" stroke="#000" stroke-width="2" fill="none"/>
  <path id="path2987-0" d="m613.12 535.71c-57.786-5.2532-116.02 4.3372-174.45 2.9442-1.0144 29.165 0.0289 63.503 3.6803 89.063 53.928 0.22157 110.31-0.67619 162.67-4.4163-2.9755-28.267 6.568-57.864 8.0966-87.591z" stroke="#000" stroke-width="2" fill="none"/>
  <text id="text3807" style="word-spacing:0px;letter-spacing:0px" xml:space="preserve" font-size="40px" line-height="125%" y="81.867813" x="38.664543" font-family="Purisa,Comic Sans,cursive" fill="#000000"><tspan id="tspan3809" font-size="36px" y="81.867813" x="38.664543">Browser</tspan></text>
  <text id="text3811" style="word-spacing:0px;letter-spacing:0px" xml:space="preserve" font-size="40px" line-height="125%" y="81.21981" x="463.69107" font-family="Purisa,Comic Sans,cursive" fill="#000000"><tspan id="tspan3813" font-size="36px" y="81.21981" x="463.69107">Server</tspan></text>
  <text id="text3807-4" style="word-spacing:0px;letter-spacing:0px" xml:space="preserve" font-size="40px" line-height="125%" y="594.09161" x="38.664543" font-family="Purisa,Comic Sans,cursive" fill="#000000"><tspan id="tspan3809-4" font-size="36px" y="594.09161" x="38.664543">Browser</tspan></text>
  <text id="text3811-1" style="word-spacing:0px;letter-spacing:0px" xml:space="preserve" font-size="40px" line-height="125%" y="593.4436" x="463.69107" font-family="Purisa,Comic Sans,cursive" fill="#000000"><tspan id="tspan3813-6" font-size="36px" y="593.4436" x="463.69107">Server</tspan></text>
  <path id="path3859" d="m105 114.51c13.605 141.73 5.7143 283.14 5.7143 422.14" stroke="#000" stroke-width="2" fill="none"/>
  <path id="path3859-2" d="m512.43 113.79c13.605 141.73 5.7143 283.14 5.7143 422.14" stroke="#000" stroke-width="2" fill="none"/>
  <text id="text3921" style="word-spacing:0px;letter-spacing:0px" xml:space="preserve" font-size="20px" line-height="125%" y="239.53613" x="197.81723" font-family="Purisa,Comic Sans,cursive" fill="#000000"><tspan id="tspan3923" font-size="20px" y="239.53613" x="197.81723">&lt;input type=&quot;date&quot;&gt;</tspan></text>
  <g id="g3934" stroke="#000" stroke-width="2" fill="none">
   <path id="path3883" d="m110 183.79c134.38-4.2547 277.53 3.6235 407.14-2.8571"/>
   <path id="path3932" d="m445.48 135.91c19.143 7.8824 38.414 20.005 55.558 33.335-13.369 18.179-41.25 23.382-55.558 32.325" transform="translate(15.188 10.897)"/>
  </g>
  <path id="path3883-1" d="m520.61 254.42c-134.38-4.25-277.53 3.62-407.14-2.86" stroke="#000" stroke-width="2" fill="none"/>
  <path id="path3932-8" d="m169.95 217.43c-19.143 7.8824-38.414 20.005-55.558 33.335 13.369 18.179 41.25 23.382 55.558 32.325" stroke="#000" stroke-width="2" fill="none"/>
  <path id="path3883-4" d="m111.65 387.33c134.38-4.2547 277.53 3.6235 407.14-2.8571" stroke="#000" stroke-width="2" fill="none"/>
  <path id="path3932-6" d="m479.46 346.41c15.214 13.24 21.271 23.933 38.416 37.264-13.369 18.179-41.25 23.382-55.558 32.325" stroke="#000" stroke-width="2" fill="none"/>
  <path id="path3883-1-8" d="m518.98 458.21c-134.38-4.26-277.53 3.62-407.14-2.86" stroke="#000" stroke-width="2" fill="none"/>
  <path id="path3932-8-8" d="m168.32 421.22c-19.143 7.8824-38.414 20.005-55.558 33.335 13.369 18.179 41.25 23.382 55.558 32.325" stroke="#000" stroke-width="2" fill="none"/>
  <text id="text3921-9" style="word-spacing:0px;letter-spacing:0px" xml:space="preserve" font-size="20px" line-height="125%" y="371.50797" x="124.29275" font-family="Purisa,Comic Sans,cursive" fill="#000000"><tspan id="tspan3923-1" font-size="18px" y="371.50797" x="124.29275">if not supported, download polyfill</tspan></text>
  <text id="text3921-4" style="word-spacing:0px;letter-spacing:0px" xml:space="preserve" font-size="20px" line-height="125%" y="442.03561" x="226.24646" font-family="Purisa,Comic Sans,cursive" fill="#000000"><tspan id="tspan3923-6" font-size="20px" y="442.03561" x="226.24646">datepicker.js</tspan></text>
 </g>
</svg>
